<svg xmlns="http://www.w3.org/2000/svg" xmlns:xlink="http://www.w3.org/1999/xlink" width="500" zoomAndPan="magnify" viewBox="0 0 375 374.999991" height="500" preserveAspectRatio="xMidYMid meet" version="1.0"><defs><clipPath id="5be29aff85"><path d="M 187.5 0 C 83.945312 0 0 83.945312 0 187.5 C 0 291.054688 83.945312 375 187.5 375 C 291.054688 375 375 291.054688 375 187.5 C 375 83.945312 291.054688 0 187.5 0 Z M 187.5 0 " clip-rule="nonzero"/></clipPath><clipPath id="3ee32e6791"><path d="M 85.140625 21.277344 L 289.890625 21.277344 L 289.890625 353.527344 L 85.140625 353.527344 Z M 85.140625 21.277344 " clip-rule="nonzero"/></clipPath></defs><g clip-path="url(#5be29aff85)"><rect x="-37.5" width="450" fill="#4d007e" y="-37.499999" height="449.999989" fill-opacity="1"/></g><g clip-path="url(#3ee32e6791)"><path fill="#d61d4d" d="M 178.703125 353.765625 C 178.703125 353.765625 77.175781 330.078125 85.640625 234.472656 C 85.640625 234.472656 84.917969 190.480469 135.554688 137.179688 C 186.242188 83.832031 135.554688 21.273438 135.554688 21.273438 C 135.554688 21.273438 220.738281 54.917969 230.042969 165.75 C 230.042969 165.75 248.078125 137.179688 219.3125 71.1875 C 219.3125 71.1875 366.261719 239.550781 236.105469 349.539062 C 236.105469 349.539062 288.601562 262.914062 240.375 209.617188 C 240.375 209.617188 243.851562 234.472656 199.855469 262.390625 C 199.855469 262.390625 171.9375 210.785156 187.507812 143.945312 C 187.507812 143.945312 143.273438 164.917969 137.246094 226.011719 C 131.328125 286.082031 191.738281 298.773438 178.703125 353.765625 " fill-opacity="1" fill-rule="nonzero"/></g></svg>