<svg xmlns="http://www.w3.org/2000/svg" xmlns:xlink="http://www.w3.org/1999/xlink" width="500" zoomAndPan="magnify" viewBox="0 0 375 374.999991" height="500" preserveAspectRatio="xMidYMid meet" version="1.0"><path fill="#ebba16" d="M 219.269531 201.523438 C 219.269531 202.542969 219.21875 203.558594 219.121094 204.574219 C 219.019531 205.589844 218.871094 206.597656 218.671875 207.597656 C 218.472656 208.597656 218.222656 209.585938 217.929688 210.5625 C 217.632812 211.539062 217.289062 212.5 216.898438 213.441406 C 216.507812 214.382812 216.070312 215.304688 215.589844 216.203125 C 215.109375 217.105469 214.585938 217.976562 214.019531 218.824219 C 213.453125 219.675781 212.847656 220.492188 212.199219 221.28125 C 211.550781 222.070312 210.867188 222.824219 210.148438 223.546875 C 209.425781 224.265625 208.671875 224.949219 207.882812 225.597656 C 207.09375 226.246094 206.273438 226.851562 205.425781 227.417969 C 204.578125 227.984375 203.703125 228.507812 202.804688 228.992188 C 201.90625 229.472656 200.984375 229.90625 200.042969 230.296875 C 199.097656 230.6875 198.140625 231.03125 197.164062 231.328125 C 196.1875 231.625 195.199219 231.871094 194.199219 232.070312 C 193.199219 232.269531 192.191406 232.417969 191.175781 232.519531 C 190.160156 232.617188 189.144531 232.667969 188.121094 232.667969 C 187.101562 232.667969 186.085938 232.617188 185.070312 232.519531 C 184.054688 232.417969 183.046875 232.269531 182.046875 232.070312 C 181.046875 231.871094 180.058594 231.625 179.082031 231.328125 C 178.105469 231.03125 177.144531 230.6875 176.203125 230.296875 C 175.261719 229.90625 174.339844 229.472656 173.441406 228.992188 C 172.542969 228.507812 171.667969 227.984375 170.820312 227.417969 C 169.972656 226.851562 169.152344 226.246094 168.363281 225.597656 C 167.574219 224.949219 166.820312 224.265625 166.097656 223.546875 C 165.378906 222.824219 164.695312 222.070312 164.046875 221.28125 C 163.398438 220.492188 162.792969 219.675781 162.226562 218.824219 C 161.660156 217.976562 161.136719 217.105469 160.65625 216.203125 C 160.171875 215.304688 159.738281 214.382812 159.347656 213.441406 C 158.957031 212.5 158.613281 211.539062 158.316406 210.5625 C 158.023438 209.585938 157.773438 208.597656 157.574219 207.597656 C 157.375 206.597656 157.226562 205.589844 157.125 204.574219 C 157.027344 203.558594 156.976562 202.542969 156.976562 201.523438 C 156.976562 200.5 157.027344 199.484375 157.125 198.46875 C 157.226562 197.453125 157.375 196.445312 157.574219 195.445312 C 157.773438 194.445312 158.023438 193.457031 158.316406 192.480469 C 158.613281 191.503906 158.957031 190.546875 159.347656 189.601562 C 159.738281 188.660156 160.171875 187.738281 160.65625 186.839844 C 161.136719 185.941406 161.660156 185.066406 162.226562 184.21875 C 162.792969 183.371094 163.398438 182.550781 164.046875 181.761719 C 164.695312 180.972656 165.378906 180.21875 166.097656 179.5 C 166.820312 178.777344 167.574219 178.09375 168.363281 177.445312 C 169.152344 176.796875 169.972656 176.191406 170.820312 175.625 C 171.667969 175.058594 172.542969 174.535156 173.441406 174.054688 C 174.339844 173.574219 175.261719 173.136719 176.203125 172.746094 C 177.144531 172.355469 178.105469 172.011719 179.082031 171.71875 C 180.058594 171.421875 181.046875 171.171875 182.046875 170.972656 C 183.046875 170.773438 184.054688 170.625 185.070312 170.527344 C 186.085938 170.425781 187.101562 170.375 188.121094 170.375 C 189.144531 170.375 190.160156 170.425781 191.175781 170.527344 C 192.191406 170.625 193.199219 170.773438 194.199219 170.972656 C 195.199219 171.171875 196.1875 171.421875 197.164062 171.71875 C 198.140625 172.011719 199.097656 172.355469 200.042969 172.746094 C 200.984375 173.136719 201.90625 173.574219 202.804688 174.054688 C 203.703125 174.535156 204.578125 175.058594 205.425781 175.625 C 206.273438 176.191406 207.09375 176.796875 207.882812 177.445312 C 208.671875 178.09375 209.425781 178.777344 210.148438 179.5 C 210.867188 180.21875 211.550781 180.972656 212.199219 181.761719 C 212.847656 182.550781 213.453125 183.371094 214.019531 184.21875 C 214.585938 185.066406 215.109375 185.941406 215.589844 186.839844 C 216.070312 187.738281 216.507812 188.660156 216.898438 189.601562 C 217.289062 190.546875 217.632812 191.503906 217.929688 192.480469 C 218.222656 193.457031 218.472656 194.445312 218.671875 195.445312 C 218.871094 196.445312 219.019531 197.453125 219.121094 198.46875 C 219.21875 199.484375 219.269531 200.5 219.269531 201.523438 Z M 219.269531 201.523438 " fill-opacity="1" fill-rule="nonzero"/><path fill="#ed8a19" d="M 168.257812 270.835938 L 168.359375 270.710938 C 173.117188 264.550781 171.136719 255.453125 164.109375 252.109375 C 145.242188 243.140625 132.140625 223.953125 132.066406 201.726562 C 131.960938 171.847656 156.464844 146.429688 186.335938 145.488281 C 218.0625 144.492188 244.1875 170.015625 244.1875 201.523438 C 244.1875 223.714844 231.210938 242.898438 212.453125 251.960938 C 205.316406 255.410156 203.046875 264.4375 207.894531 270.710938 L 207.996094 270.839844 C 211.507812 275.382812 217.742188 277.050781 222.917969 274.570312 C 251.351562 260.984375 270.691406 231.335938 269.003906 197.410156 C 266.949219 156.15625 232.710938 122.261719 191.4375 120.609375 C 145.285156 118.761719 107.144531 155.769531 107.144531 201.523438 C 107.144531 233.707031 126.042969 261.523438 153.308594 274.558594 C 158.496094 277.046875 164.746094 275.386719 168.257812 270.835938 Z M 168.257812 270.835938 " fill-opacity="1" fill-rule="nonzero"/><path fill="#c5411e" d="M 137.472656 310.671875 C 141.988281 304.828125 140.4375 296.332031 134.089844 292.550781 C 100.339844 272.449219 78.644531 234.132812 82.707031 191.25 C 87.589844 139.714844 130.566406 98.582031 182.253906 95.78125 C 243.300781 92.480469 294.019531 141.191406 294.019531 201.523438 C 294.019531 240.207031 273.171875 274.09375 242.117188 292.570312 C 235.789062 296.335938 234.261719 304.839844 238.765625 310.671875 C 242.589844 315.621094 249.542969 316.992188 254.917969 313.785156 C 293.875 290.542969 319.851562 247.738281 318.90625 198.949219 C 317.597656 131.28125 263.171875 74.699219 195.597656 70.914062 C 120.09375 66.691406 57.308594 126.914062 57.308594 201.523438 C 57.308594 249.230469 83.046875 290.949219 121.3125 313.777344 C 126.691406 316.992188 133.648438 315.628906 137.472656 310.671875 Z M 137.472656 310.671875 " fill-opacity="1" fill-rule="nonzero"/><path fill="#dd352e" d="M 176.5625 21.234375 C 83.421875 27.035156 9.03125 105.179688 7.5 198.488281 C 6.433594 263.378906 39.605469 320.5625 90.117188 353.253906 C 95.550781 356.773438 102.789062 355.566406 106.746094 350.4375 L 106.855469 350.289062 C 111.335938 344.496094 109.757812 336.222656 103.617188 332.242188 C 55.253906 300.878906 25.289062 243.457031 33.84375 180 C 43.269531 110.132812 100.222656 54.625 170.28125 46.792969 C 264.101562 36.304688 343.855469 109.777344 343.855469 201.523438 C 343.855469 256.296875 315.417969 304.535156 272.542969 332.296875 C 266.429688 336.253906 264.921875 344.507812 269.371094 350.269531 L 269.5 350.4375 C 273.445312 355.539062 280.660156 356.785156 286.070312 353.285156 C 335.824219 321.117188 368.769531 265.183594 368.769531 201.523438 C 368.769531 97.929688 281.566406 14.699219 176.5625 21.234375 Z M 176.5625 21.234375 " fill-opacity="1" fill-rule="nonzero"/><path fill="#4d007e" d="M 188.121094 238.898438 C 167.515625 238.898438 150.746094 222.132812 150.746094 201.523438 C 150.746094 180.910156 167.515625 164.148438 188.121094 164.148438 C 208.730469 164.148438 225.5 180.910156 225.5 201.523438 C 225.5 222.132812 208.730469 238.898438 188.121094 238.898438 Z M 188.121094 176.605469 C 174.382812 176.605469 163.207031 187.78125 163.207031 201.523438 C 163.207031 215.265625 174.382812 226.4375 188.121094 226.4375 C 201.863281 226.4375 213.039062 215.265625 213.039062 201.523438 C 213.039062 187.78125 201.863281 176.605469 188.121094 176.605469 Z M 188.121094 176.605469 " fill-opacity="1" fill-rule="nonzero"/><path fill="#4d007e" d="M 217.875 281.933594 C 212.253906 281.933594 206.699219 279.355469 203.0625 274.652344 C 199.527344 270.085938 198.300781 264.414062 199.585938 258.96875 C 200.886719 253.441406 204.585938 248.84375 209.746094 246.355469 C 226.882812 238.074219 237.957031 220.476562 237.957031 201.523438 C 237.957031 187.9375 232.570312 175.234375 222.777344 165.746094 C 212.996094 156.273438 200.164062 151.289062 186.523438 151.714844 C 159.835938 152.554688 138.195312 174.980469 138.289062 201.703125 C 138.359375 220.707031 149.539062 238.285156 166.78125 246.476562 C 171.777344 248.851562 175.378906 253.324219 176.671875 258.742188 C 177.996094 264.269531 176.761719 270.019531 173.285156 274.515625 L 173.183594 274.648438 C 167.847656 281.5625 158.351562 283.886719 150.617188 280.183594 C 120.421875 265.746094 100.914062 234.867188 100.914062 201.523438 C 100.914062 177.59375 110.445312 155.269531 127.742188 138.644531 C 145.027344 122.035156 167.726562 113.464844 191.6875 114.382812 C 236.3125 116.167969 273.003906 152.503906 275.21875 197.09375 C 276.96875 232.332031 257.496094 264.949219 225.597656 280.183594 C 223.144531 281.367188 220.503906 281.933594 217.875 281.933594 Z M 168.257812 270.835938 L 168.320312 270.835938 Z M 188.140625 139.230469 C 204.398438 139.230469 219.707031 145.425781 231.445312 156.800781 C 243.679688 168.65625 250.414062 184.542969 250.414062 201.523438 C 250.414062 225.222656 236.582031 247.21875 215.164062 257.566406 C 213.40625 258.414062 212.148438 259.964844 211.714844 261.820312 C 211.464844 262.859375 211.28125 264.910156 212.820312 266.898438 C 214.691406 269.320312 217.769531 270.128906 220.234375 268.945312 C 247.585938 255.878906 264.289062 227.921875 262.78125 197.714844 C 260.878906 159.5 229.429688 128.359375 191.1875 126.828125 C 170.664062 126.074219 151.195312 133.394531 136.375 147.625 C 121.539062 161.886719 113.371094 181.023438 113.371094 201.523438 C 113.371094 230.09375 130.105469 256.558594 156 268.941406 C 158.464844 270.117188 161.542969 269.320312 163.316406 267.042969 L 163.398438 266.929688 C 164.582031 265.398438 164.992188 263.476562 164.550781 261.632812 C 164.308594 260.613281 163.578125 258.757812 161.425781 257.734375 C 139.882812 247.488281 125.910156 225.511719 125.824219 201.746094 C 125.707031 168.339844 152.757812 140.308594 186.128906 139.261719 C 186.800781 139.242188 187.476562 139.230469 188.140625 139.230469 Z M 188.140625 139.230469 " fill-opacity="1" fill-rule="nonzero"/><path fill="#4d007e" d="M 127.605469 321.753906 C 124.359375 321.753906 121.082031 320.898438 118.125 319.136719 C 76.769531 294.457031 51.078125 249.394531 51.078125 201.523438 C 51.078125 163.511719 66.335938 128.160156 94.035156 101.964844 C 121.707031 75.804688 157.890625 62.589844 195.960938 64.695312 C 267.023438 68.675781 323.765625 127.59375 325.148438 198.832031 C 326.09375 247.804688 300.410156 293.902344 258.121094 319.136719 C 250.054688 323.945312 239.621094 321.953125 233.84375 314.476562 C 230.582031 310.257812 229.285156 304.832031 230.28125 299.59375 C 231.265625 294.414062 234.425781 289.902344 238.933594 287.210938 C 269.070312 269.285156 287.789062 236.449219 287.789062 201.523438 C 287.789062 173.921875 276.714844 148.226562 256.613281 129.183594 C 236.53125 110.15625 210.242188 100.535156 182.597656 102.003906 C 133.792969 104.652344 93.511719 143.273438 88.910156 191.839844 C 85.226562 230.699219 103.765625 267.242188 137.28125 287.199219 C 141.808594 289.902344 144.972656 294.425781 145.964844 299.613281 C 146.960938 304.847656 145.660156 310.257812 142.398438 314.476562 C 138.75 319.21875 133.226562 321.753906 127.605469 321.753906 Z M 137.472656 310.671875 L 137.535156 310.671875 Z M 188.199219 89.394531 C 216.976562 89.394531 244.109375 100.183594 265.179688 120.144531 C 287.789062 141.566406 300.25 170.46875 300.25 201.527344 C 300.25 240.820312 279.195312 277.761719 245.308594 297.933594 C 243.832031 298.808594 242.839844 300.230469 242.515625 301.9375 C 242.1875 303.675781 242.617188 305.46875 243.699219 306.871094 C 245.625 309.351562 249.070312 310.035156 251.734375 308.441406 C 290.1875 285.492188 313.546875 243.589844 312.6875 199.082031 C 311.4375 134.320312 259.859375 80.761719 195.261719 77.144531 C 160.671875 75.210938 127.75 87.242188 102.59375 111.023438 C 77.410156 134.832031 63.539062 166.980469 63.539062 201.523438 C 63.539062 245.019531 86.898438 285.992188 124.511719 308.433594 C 127.175781 310.027344 130.628906 309.34375 132.546875 306.863281 C 133.640625 305.445312 134.058594 303.699219 133.722656 301.945312 C 133.398438 300.222656 132.394531 298.792969 130.902344 297.90625 C 93.207031 275.457031 72.363281 234.363281 76.507812 190.671875 C 81.683594 136.007812 127 92.546875 181.917969 89.570312 C 184.023438 89.453125 186.117188 89.394531 188.199219 89.394531 Z M 188.199219 89.394531 " fill-opacity="1" fill-rule="nonzero"/><path fill="#4d007e" d="M 279.398438 361.46875 C 273.773438 361.46875 268.207031 358.960938 264.566406 354.25 C 261.277344 349.988281 259.964844 344.738281 260.832031 339.65625 C 261.707031 334.515625 264.734375 329.925781 269.148438 327.070312 C 312.027344 299.308594 337.625 252.378906 337.625 201.523438 C 337.625 159.09375 319.421875 118.480469 287.683594 90.09375 C 255.542969 61.34375 214.105469 48.175781 170.972656 52.980469 C 104.070312 60.460938 49 114.230469 40.015625 180.835938 C 32.160156 239.109375 57.832031 295.128906 107.003906 327.023438 C 111.445312 329.898438 114.5 334.523438 115.382812 339.691406 C 116.261719 344.84375 114.984375 349.957031 111.789062 354.101562 C 105.785156 361.863281 94.832031 363.726562 86.734375 358.480469 C 32.15625 323.160156 0.207031 263.308594 1.269531 198.382812 C 2.867188 101.566406 79.691406 21.023438 176.175781 15.023438 C 228.425781 11.742188 278.089844 29.632812 316.066406 65.3125 C 353.523438 100.507812 375 150.15625 375 201.523438 C 375 265.191406 343.019531 323.882812 289.453125 358.515625 C 286.371094 360.511719 282.875 361.46875 279.398438 361.46875 Z M 187.71875 39.59375 C 227.515625 39.59375 266.1875 54.152344 295.988281 80.8125 C 330.359375 111.558594 350.078125 155.5625 350.078125 201.527344 C 350.078125 256.621094 322.355469 307.460938 275.917969 337.53125 C 274.402344 338.507812 273.40625 340.011719 273.113281 341.75 C 272.828125 343.429688 273.246094 345.105469 274.296875 346.464844 C 276.386719 349.167969 280.015625 349.789062 282.683594 348.058594 C 332.691406 315.722656 362.542969 260.949219 362.542969 201.523438 C 362.542969 152.871094 343.007812 107.722656 307.539062 74.390625 C 272.09375 41.089844 225.699219 24.449219 176.953125 27.457031 C 86.910156 33.066406 15.210938 108.234375 13.730469 198.589844 C 12.734375 259.1875 42.550781 315.054688 93.5 348.027344 C 96.210938 349.785156 99.859375 349.167969 101.816406 346.632812 C 102.976562 345.128906 103.394531 343.46875 103.105469 341.785156 C 102.800781 340.011719 101.78125 338.476562 100.226562 337.476562 C 46.96875 302.933594 19.167969 242.273438 27.671875 179.164062 C 37.40625 106.980469 97.089844 48.707031 169.589844 40.601562 C 175.640625 39.921875 181.695312 39.59375 187.71875 39.59375 Z M 176.5625 21.242188 L 176.625 21.242188 Z M 176.5625 21.242188 " fill-opacity="1" fill-rule="nonzero"/></svg>