<svg xmlns="http://www.w3.org/2000/svg" xmlns:xlink="http://www.w3.org/1999/xlink" width="500" zoomAndPan="magnify" viewBox="0 0 375 374.999991" height="500" preserveAspectRatio="xMidYMid meet" version="1.0"><defs><clipPath id="4f7fb25754"><path d="M 108.929688 25.941406 L 266.09375 25.941406 L 266.09375 280.941406 L 108.929688 280.941406 Z M 108.929688 25.941406 " clip-rule="nonzero"/></clipPath></defs><path fill="#4d007e" d="M 330.902344 143.570312 C 330.902344 222.78125 187.464844 375.277344 187.464844 375.277344 C 187.464844 375.277344 44.027344 222.78125 44.027344 143.570312 C 44.027344 64.351562 108.246094 0.136719 187.460938 0.136719 C 266.675781 0.136719 330.902344 64.351562 330.902344 143.570312 Z M 330.902344 143.570312 " fill-opacity="1" fill-rule="nonzero"/><g clip-path="url(#4f7fb25754)"><path fill="#d61d4d" d="M 180.75 281.15625 C 180.75 281.15625 102.816406 262.972656 109.316406 189.589844 C 109.316406 189.589844 108.761719 155.820312 147.628906 114.90625 C 186.535156 73.957031 147.628906 25.9375 147.628906 25.9375 C 147.628906 25.9375 213.015625 51.761719 220.15625 136.835938 C 220.15625 136.835938 234 114.90625 211.921875 64.253906 C 211.921875 64.253906 324.714844 193.488281 224.808594 277.910156 C 224.808594 277.910156 265.105469 211.417969 228.089844 170.507812 C 228.089844 170.507812 230.757812 189.589844 196.984375 211.019531 C 196.984375 211.019531 175.554688 171.40625 187.507812 120.101562 C 187.507812 120.101562 153.550781 136.199219 148.925781 183.09375 C 144.382812 229.203125 190.753906 238.945312 180.75 281.15625 " fill-opacity="1" fill-rule="nonzero"/></g></svg>