<svg xmlns="http://www.w3.org/2000/svg" xmlns:xlink="http://www.w3.org/1999/xlink" width="500" zoomAndPan="magnify" viewBox="0 0 375 374.999991" height="500" preserveAspectRatio="xMidYMid meet" version="1.0"><path fill="#660066" d="M 187.5 0 C 83.953125 0 0 83.953125 0 187.5 C 0 291.046875 83.953125 375 187.5 375 C 291.046875 375 375 291.046875 375 187.5 C 375 83.953125 291.046875 0 187.5 0 Z M 187.5 346.875 C 99.476562 346.875 28.125 275.523438 28.125 187.5 C 28.125 99.476562 99.476562 28.125 187.5 28.125 C 275.523438 28.125 346.875 99.476562 346.875 187.5 C 346.875 275.523438 275.523438 346.875 187.5 346.875 Z M 187.5 346.875 " fill-opacity="1" fill-rule="nonzero"/><path fill="#660066" d="M 148.472656 252.507812 L 157.433594 208.996094 C 158.289062 204.824219 158.832031 201.898438 159.09375 200.230469 C 159.347656 198.5625 159.476562 197.277344 159.476562 196.332031 C 159.476562 193.351562 157.988281 191.679688 154.996094 191.34375 C 153.289062 191.164062 151.800781 190.914062 150.523438 190.574219 C 148.472656 190.058594 146.851562 189.085938 145.660156 187.632812 C 144.460938 186.179688 143.867188 184.472656 143.867188 182.511719 C 143.867188 178.835938 145.292969 175.40625 148.152344 172.210938 C 151.011719 169.003906 155.429688 165.957031 161.398438 163.058594 C 168.816406 159.5625 176.914062 156.722656 185.710938 154.546875 C 194.492188 152.382812 202.472656 151.285156 209.632812 151.285156 C 214.238281 151.285156 217.867188 152.539062 220.507812 155.054688 C 223.152344 157.574219 224.476562 161.054688 224.476562 165.476562 C 224.476562 167.53125 224.136719 170.867188 223.460938 175.519531 C 222.777344 180.167969 221.671875 186.507812 220.132812 194.511719 L 215.652344 217.03125 C 214.03125 225.5625 212.839844 232.304688 212.070312 237.242188 C 211.304688 242.183594 210.917969 245.523438 210.917969 247.21875 C 210.917969 248.839844 211.050781 249.945312 211.304688 250.546875 C 211.554688 251.136719 212.023438 251.445312 212.710938 251.445312 C 213.648438 251.445312 214.835938 251.335938 216.289062 251.128906 C 217.734375 250.921875 218.71875 250.808594 219.226562 250.808594 C 221.277344 250.808594 222.898438 251.578125 224.089844 253.117188 C 225.289062 254.644531 225.882812 256.695312 225.882812 259.246094 C 225.882812 262.5 224.726562 265.820312 222.429688 269.242188 C 220.125 272.644531 216.882812 275.886719 212.710938 278.960938 C 206.136719 283.734375 199.125 287.445312 191.664062 290.089844 C 184.191406 292.734375 176.972656 294.066406 169.976562 294.066406 C 162.046875 294.066406 156.007812 292.480469 151.875 289.332031 C 147.742188 286.171875 145.667969 281.570312 145.667969 275.503906 C 145.667969 272.523438 145.894531 269.175781 146.371094 265.460938 C 146.832031 261.777344 147.535156 257.445312 148.472656 252.507812 Z M 178.40625 128.257812 C 171.242188 128.257812 165.488281 126.789062 161.136719 123.84375 C 156.789062 120.898438 154.613281 117.039062 154.613281 112.265625 C 154.613281 108.253906 156.039062 104.417969 158.898438 100.742188 C 161.757812 97.078125 166.085938 93.582031 171.890625 90.253906 C 176.914062 87.355469 182.484375 85.070312 188.578125 83.417969 C 194.671875 81.75 200.457031 80.914062 205.921875 80.914062 C 213.347656 80.914062 219.394531 82.367188 224.082031 85.265625 C 228.777344 88.171875 231.121094 91.835938 231.121094 96.273438 C 231.121094 104.371094 225.851562 111.730469 215.316406 118.339844 C 204.789062 124.949219 192.488281 128.257812 178.40625 128.257812 Z M 178.40625 128.257812 " fill-opacity="1" fill-rule="nonzero"/></svg>