<svg xmlns="http://www.w3.org/2000/svg" xmlns:xlink="http://www.w3.org/1999/xlink" width="500" zoomAndPan="magnify" viewBox="0 0 375 374.999991" height="500" preserveAspectRatio="xMidYMid meet" version="1.0"><defs><clipPath id="6663c68943"><path d="M 122.34375 141.527344 L 252.652344 141.527344 L 252.652344 362.671875 L 122.34375 362.671875 Z M 122.34375 141.527344 " clip-rule="nonzero"/></clipPath><clipPath id="65d983c87c"><path d="M 176.355469 364.066406 L 198.726562 364.066406 L 198.726562 374.882812 L 176.355469 374.882812 Z M 176.355469 364.066406 " clip-rule="nonzero"/></clipPath></defs><g clip-path="url(#6663c68943)"><path fill="#4d007e" d="M 252.652344 141.621094 C 237.570312 157.828125 212.925781 172.09375 186.421875 172.09375 C 159.929688 172.09375 137.417969 157.828125 122.34375 141.621094 Z M 189.152344 252.476562 L 189.152344 362.652344 L 195.382812 362.652344 L 203.085938 243.523438 C 200.265625 248.492188 195.132812 251.960938 189.152344 252.476562 Z M 186.492188 252.503906 L 186.492188 362.652344 L 180.261719 362.652344 L 172.617188 244.253906 C 175.574219 248.9375 180.648438 252.136719 186.492188 252.503906 Z M 198.183594 224.117188 C 195.480469 221.40625 191.75 219.734375 187.625 219.734375 C 183.507812 219.734375 179.777344 221.40625 177.074219 224.117188 C 174.371094 226.828125 172.707031 230.574219 172.707031 234.703125 C 172.707031 238.847656 174.371094 242.589844 177.074219 245.300781 C 179.777344 248.015625 183.507812 249.6875 187.625 249.6875 C 191.75 249.6875 195.480469 248.015625 198.183594 245.300781 C 200.886719 242.589844 202.550781 238.847656 202.550781 234.703125 C 202.550781 230.574219 200.886719 226.828125 198.183594 224.117188 Z M 225.113281 171.945312 C 225.121094 176.125 224.753906 186.578125 221.316406 198.03125 C 218.332031 207.996094 213.023438 218.761719 203.675781 227.042969 C 202.636719 224.867188 201.175781 222.929688 199.394531 221.347656 C 207.328125 214.140625 211.890625 204.742188 214.515625 195.992188 C 216.636719 188.921875 217.5 182.308594 217.828125 177.539062 C 214.078125 179.074219 210.136719 180.328125 206.058594 181.28125 C 201.300781 182.398438 196.324219 183.097656 191.179688 183.351562 L 191.179688 217.234375 C 190.035156 217 188.84375 216.875 187.625 216.875 C 186.414062 216.875 185.222656 217 184.078125 217.234375 L 184.078125 183.351562 C 178.933594 183.097656 173.957031 182.398438 169.199219 181.28125 C 165.121094 180.328125 161.179688 179.074219 157.429688 177.539062 C 157.757812 182.308594 158.621094 188.921875 160.742188 195.992188 C 163.367188 204.742188 167.929688 214.140625 175.863281 221.347656 C 174.082031 222.929688 172.617188 224.867188 171.582031 227.042969 C 162.226562 218.761719 156.925781 207.996094 153.941406 198.03125 C 150.503906 186.578125 150.136719 176.125 150.144531 171.945312 L 150.15625 166.210938 L 155.25 168.757812 C 160.054688 171.160156 165.277344 173.042969 170.808594 174.335938 C 176.191406 175.601562 181.832031 176.300781 187.625 176.351562 C 193.425781 176.300781 199.0625 175.601562 204.449219 174.335938 C 209.980469 173.042969 215.203125 171.160156 220.007812 168.757812 L 225.101562 166.210938 L 225.113281 171.945312 " fill-opacity="1" fill-rule="nonzero"/></g><path fill="#d61d4d" d="M 181.617188 13.617188 C 184.128906 7.851562 178.644531 1.621094 177.210938 0.121094 C 177.269531 0.898438 177.355469 1.667969 177.441406 2.378906 C 177.460938 2.542969 177.492188 2.707031 177.511719 2.871094 C 177.636719 3.960938 177.703125 5.253906 177.664062 6.519531 C 177.617188 7.585938 177.5 8.628906 177.257812 9.511719 C 177.125 10.03125 176.976562 10.53125 176.832031 11.039062 C 175.410156 15.929688 173.90625 21.121094 181.085938 25.460938 C 180.535156 23.960938 179.1875 19.21875 181.617188 13.617188 Z M 201.410156 30.980469 C 201.195312 29.433594 200.875 27.957031 200.488281 26.859375 C 199.675781 24.515625 199.277344 23.699219 199.121094 23.746094 C 198.917969 23.824219 198.949219 25.378906 198.976562 27.035156 C 198.988281 27.433594 198.988281 27.839844 198.996094 28.238281 C 198.996094 28.722656 198.976562 29.824219 198.832031 31.03125 C 198.746094 31.796875 198.617188 32.613281 198.414062 33.363281 C 198.144531 34.34375 197.757812 35.210938 197.320312 35.8125 C 197.097656 36.113281 196.847656 36.355469 196.59375 36.492188 C 196.324219 36.648438 196.03125 36.695312 195.742188 36.617188 C 195.605469 36.578125 195.460938 36.511719 195.324219 36.40625 C 194.210938 35.578125 193.503906 32.4375 192.855469 29.582031 C 192.136719 26.429688 191.652344 24.527344 189.734375 21.832031 C 188.914062 20.675781 188.109375 19.847656 187.515625 19.390625 C 187.574219 19.605469 187.703125 19.992188 187.867188 20.519531 C 188.050781 21.101562 188.292969 21.851562 188.523438 22.714844 C 189.105469 24.796875 189.695312 27.597656 189.675781 30.679688 C 189.65625 34.539062 189.792969 38.71875 189.347656 41.734375 C 188.730469 45.921875 187.460938 48.742188 187.292969 53.082031 C 187.140625 56.871094 188.117188 60.78125 191.769531 65.410156 C 192.15625 65.902344 192.507812 66.253906 192.777344 66.457031 C 193.222656 66.789062 193.105469 66.699219 193.019531 66.261719 C 192.507812 63.726562 192.378906 60.992188 192.730469 58.164062 C 193.066406 55.410156 193.84375 52.5625 195.152344 49.714844 C 195.992188 47.878906 197.019531 46.34375 198.019531 44.863281 C 200.527344 41.140625 202.027344 35.453125 201.410156 30.980469 Z M 168.347656 38.679688 C 169.003906 36.386719 169.886719 34.246094 170.972656 32.503906 C 171.117188 32.292969 171.261719 32.058594 171.398438 31.847656 C 171.835938 31.164062 172.097656 30.757812 172.085938 30.730469 C 172.078125 30.71875 171.621094 30.980469 170.546875 31.601562 C 167.796875 33.1875 165.671875 35.539062 164.105469 38.3125 C 162.339844 41.429688 161.285156 45.089844 160.847656 48.800781 C 160.328125 53.1875 160.664062 57.046875 161.605469 60.769531 C 162.542969 64.503906 164.085938 68.109375 165.972656 71.988281 C 166.359375 72.769531 166.769531 73.554688 167.183594 74.34375 C 177.859375 94.835938 151.984375 94.226562 156.964844 75.632812 C 157.109375 75.089844 158.351562 72.027344 158.019531 72.269531 C 156.945312 73.070312 156.082031 73.980469 155.230469 75.003906 C 152.003906 78.855469 149.933594 83.160156 148.828125 87.691406 C 146.367188 97.804688 150.222656 106.058594 157.914062 112.308594 C 159.792969 113.835938 166.515625 119.113281 168.066406 123.1875 C 170.664062 129.992188 160.945312 129.839844 161.128906 130.03125 C 180.921875 151.03125 214.941406 137.742188 223.222656 117.839844 C 224.191406 115.507812 221.152344 117.78125 218.417969 118.179688 C 209.625 119.453125 215.617188 106.84375 217.710938 103.617188 C 222.972656 95.539062 231.730469 87.28125 220.996094 64.714844 C 219.570312 61.722656 217.664062 58.960938 215.40625 56.472656 C 214.148438 55.082031 212.722656 53.742188 211.492188 52.796875 C 210.417969 51.980469 209.507812 51.484375 209.011719 51.554688 C 208.945312 51.5625 208.933594 51.660156 208.953125 51.816406 C 209.03125 52.457031 209.71875 53.761719 210.339844 54.945312 C 210.476562 55.21875 210.621094 55.488281 210.757812 55.753906 C 211.597656 57.40625 212.433594 59.523438 213.167969 61.839844 C 213.886719 64.113281 214.503906 66.574219 214.949219 68.976562 C 219.289062 92.84375 200.429688 94.1875 202.84375 71.628906 C 203.046875 69.714844 203.480469 67.816406 204.140625 65.980469 C 204.265625 65.601562 204.410156 65.230469 204.539062 64.890625 C 204.816406 64.132812 205.023438 63.558594 205.078125 63.308594 C 195.324219 68.0625 193.15625 83.707031 193.261719 93.515625 C 193.289062 95.441406 194.125 99.210938 194.609375 102.828125 C 196.101562 113.941406 185.773438 121.320312 183.554688 107.75 C 182.945312 104.015625 184.332031 97.714844 185.078125 90.644531 C 185.308594 88.429688 185.84375 85.832031 186.269531 82.984375 C 187.585938 74.304688 187.945312 63.230469 175.960938 53.320312 C 174.867188 52.417969 173.898438 51.84375 173.316406 51.601562 C 173.191406 51.554688 173.082031 51.515625 172.996094 51.496094 C 173.082031 51.902344 173.394531 52.585938 173.773438 53.390625 C 174.089844 54.0625 174.449219 54.832031 174.742188 55.605469 C 175.835938 58.445312 176.058594 61.226562 175.582031 62.859375 C 175.410156 63.453125 175.136719 63.910156 174.789062 64.164062 C 174.410156 64.4375 173.957031 64.492188 173.421875 64.28125 C 172.464844 63.898438 171.253906 62.625 169.847656 60.117188 C 168.800781 58.261719 168.074219 56.042969 167.621094 53.761719 C 167.117188 51.222656 166.953125 48.589844 167.085938 46.246094 C 167.234375 43.738281 167.660156 41.121094 168.347656 38.679688 " fill-opacity="1" fill-rule="evenodd"/><g clip-path="url(#65d983c87c)"><path fill="#4d007e" d="M 179.824219 364.160156 L 195.171875 364.160156 C 197.078125 364.160156 198.628906 365.722656 198.628906 367.628906 L 198.628906 371.402344 C 198.628906 373.316406 197.078125 374.882812 195.171875 374.882812 L 179.824219 374.882812 C 177.917969 374.882812 176.359375 373.316406 176.359375 371.402344 L 176.359375 367.628906 C 176.359375 365.722656 177.917969 364.160156 179.824219 364.160156 " fill-opacity="1" fill-rule="evenodd"/></g></svg>